# xmcd
#
# Track frame offsets: 
#        150
#        11597
#        27885
#        43680
#        59395
#        70925
#        78347
#        91515
#        105709
#        123924
#        135727
#        149592
#        159204
#        173439
#        185954
#        206679
#
# Disc length: 3063 seconds
#
# Revision: 1
# Processed by: cddbd v1.5.2PL0 Copyright (c) Steve Scherf et al.
# Submitted via: ExactAudioCopy v1.5
#
DISCID=d40bf510
DTITLE=Eugene Ruffolo - Even Santa Gets The Blues
DYEAR=2009
DGENRE=Christmas
TTITLE0=Let It Snow
TTITLE1=Here It Is Christmas
TTITLE2=The Sweetest Part
TTITLE3=Baby It's Cold Outside
TTITLE4=Christmas Time Is Here
TTITLE5=I Saw Mommy Kissing Santa Claus
TTITLE6=Away In A Manger
TTITLE7=The Christmas Song
TTITLE8=Nothing But A Child
TTITLE9=Stille Nacht
TTITLE10=Silver Bells
TTITLE11=Jingle Bells
TTITLE12=Even Santa Gets The Blues
TTITLE13=One Bright Star
TTITLE14=O Holy Night
TTITLE15=We Three Kings
EXTD=
EXTT0=
EXTT1=
EXTT2=
EXTT3=
EXTT4=
EXTT5=
EXTT6=
EXTT7=
EXTT8=
EXTT9=
EXTT10=
EXTT11=
EXTT12=
EXTT13=
EXTT14=
EXTT15=
PLAYORDER=
